<?xml version="1.0" encoding="UTF-8" standalone="no"?>
<!DOCTYPE svg PUBLIC "-//W3C//DTD SVG 1.1//EN"
 "http://www.w3.org/Graphics/SVG/1.1/DTD/svg11.dtd">
<!-- Generated by graphviz version 2.43.0 (0)
 -->
<!-- Title: robot_cart_wiring_v2 Pages: 1 -->
<svg width="4215pt" height="546pt"
 viewBox="0.00 0.00 4215.00 545.50" xmlns="http://www.w3.org/2000/svg" xmlns:xlink="http://www.w3.org/1999/xlink">
<g id="graph0" class="graph" transform="scale(1 1) rotate(0) translate(4 541.5)">
<title>robot_cart_wiring_v2</title>
<polygon fill="white" stroke="transparent" points="-4,4 -4,-541.5 4211,-541.5 4211,4 -4,4"/>
<!-- MEGA -->
<g id="node1" class="node">
<title>MEGA</title>
<polygon fill="none" stroke="black" points="1700,-60.07 1700,-96.07 3199,-96.07 3199,-60.07 1700,-60.07"/>
<text text-anchor="middle" x="1767.5" y="-74.37" font-family="Inter,Helvetica,Arial" font-size="14.00">Arduino Mega 2560</text>
<polyline fill="none" stroke="black" points="1835,-60.07 1835,-96.07 "/>
<text text-anchor="middle" x="1873" y="-74.37" font-family="Inter,Helvetica,Arial" font-size="14.00">PWM: D4</text>
<polyline fill="none" stroke="black" points="1911,-60.07 1911,-96.07 "/>
<text text-anchor="middle" x="1928" y="-74.37" font-family="Inter,Helvetica,Arial" font-size="14.00">D6</text>
<polyline fill="none" stroke="black" points="1945,-60.07 1945,-96.07 "/>
<text text-anchor="middle" x="1962" y="-74.37" font-family="Inter,Helvetica,Arial" font-size="14.00">D7</text>
<polyline fill="none" stroke="black" points="1979,-60.07 1979,-96.07 "/>
<text text-anchor="middle" x="1996" y="-74.37" font-family="Inter,Helvetica,Arial" font-size="14.00">D9</text>
<polyline fill="none" stroke="black" points="2013,-60.07 2013,-96.07 "/>
<text text-anchor="middle" x="2047" y="-74.37" font-family="Inter,Helvetica,Arial" font-size="14.00">EN: D47</text>
<polyline fill="none" stroke="black" points="2081,-60.07 2081,-96.07 "/>
<text text-anchor="middle" x="2101.5" y="-74.37" font-family="Inter,Helvetica,Arial" font-size="14.00">D49</text>
<polyline fill="none" stroke="black" points="2122,-60.07 2122,-96.07 "/>
<text text-anchor="middle" x="2142.5" y="-74.37" font-family="Inter,Helvetica,Arial" font-size="14.00">D51</text>
<polyline fill="none" stroke="black" points="2163,-60.07 2163,-96.07 "/>
<text text-anchor="middle" x="2183.5" y="-74.37" font-family="Inter,Helvetica,Arial" font-size="14.00">D53</text>
<polyline fill="none" stroke="black" points="2204,-60.07 2204,-96.07 "/>
<text text-anchor="middle" x="2236.5" y="-74.37" font-family="Inter,Helvetica,Arial" font-size="14.00">Enc: D2</text>
<polyline fill="none" stroke="black" points="2269,-60.07 2269,-96.07 "/>
<text text-anchor="middle" x="2286" y="-74.37" font-family="Inter,Helvetica,Arial" font-size="14.00">D3</text>
<polyline fill="none" stroke="black" points="2303,-60.07 2303,-96.07 "/>
<text text-anchor="middle" x="2351.5" y="-74.37" font-family="Inter,Helvetica,Arial" font-size="14.00">I2C: SDA(20)</text>
<polyline fill="none" stroke="black" points="2400,-60.07 2400,-96.07 "/>
<text text-anchor="middle" x="2433.5" y="-74.37" font-family="Inter,Helvetica,Arial" font-size="14.00">SCL(21)</text>
<polyline fill="none" stroke="black" points="2467,-60.07 2467,-96.07 "/>
<text text-anchor="middle" x="2508" y="-74.37" font-family="Inter,Helvetica,Arial" font-size="14.00">Analog: A7</text>
<polyline fill="none" stroke="black" points="2549,-60.07 2549,-96.07 "/>
<text text-anchor="middle" x="2565.5" y="-74.37" font-family="Inter,Helvetica,Arial" font-size="14.00">A6</text>
<polyline fill="none" stroke="black" points="2582,-60.07 2582,-96.07 "/>
<text text-anchor="middle" x="2598.5" y="-74.37" font-family="Inter,Helvetica,Arial" font-size="14.00">A5</text>
<polyline fill="none" stroke="black" points="2615,-60.07 2615,-96.07 "/>
<text text-anchor="middle" x="2631.5" y="-74.37" font-family="Inter,Helvetica,Arial" font-size="14.00">A4</text>
<polyline fill="none" stroke="black" points="2648,-60.07 2648,-96.07 "/>
<text text-anchor="middle" x="2664.5" y="-74.37" font-family="Inter,Helvetica,Arial" font-size="14.00">A3</text>
<polyline fill="none" stroke="black" points="2681,-60.07 2681,-96.07 "/>
<text text-anchor="middle" x="2697.5" y="-74.37" font-family="Inter,Helvetica,Arial" font-size="14.00">A2</text>
<polyline fill="none" stroke="black" points="2714,-60.07 2714,-96.07 "/>
<text text-anchor="middle" x="2730.5" y="-74.37" font-family="Inter,Helvetica,Arial" font-size="14.00">A1</text>
<polyline fill="none" stroke="black" points="2747,-60.07 2747,-96.07 "/>
<text text-anchor="middle" x="2763.5" y="-74.37" font-family="Inter,Helvetica,Arial" font-size="14.00">A0</text>
<polyline fill="none" stroke="black" points="2780,-60.07 2780,-96.07 "/>
<text text-anchor="middle" x="2827.5" y="-74.37" font-family="Inter,Helvetica,Arial" font-size="14.00">Buttons: D23</text>
<polyline fill="none" stroke="black" points="2875,-60.07 2875,-96.07 "/>
<text text-anchor="middle" x="2895.5" y="-74.37" font-family="Inter,Helvetica,Arial" font-size="14.00">D25</text>
<polyline fill="none" stroke="black" points="2916,-60.07 2916,-96.07 "/>
<text text-anchor="middle" x="2961.5" y="-74.37" font-family="Inter,Helvetica,Arial" font-size="14.00">Buzzer: D13</text>
<polyline fill="none" stroke="black" points="3007,-60.07 3007,-96.07 "/>
<text text-anchor="middle" x="3072" y="-74.37" font-family="Inter,Helvetica,Arial" font-size="14.00">SoftSerial: RX D10</text>
<polyline fill="none" stroke="black" points="3137,-60.07 3137,-96.07 "/>
<text text-anchor="middle" x="3168" y="-74.37" font-family="Inter,Helvetica,Arial" font-size="14.00">TX D11</text>
</g>
<!-- GND -->
<g id="node14" class="node">
<title>GND</title>
<text text-anchor="middle" x="4161.5" y="-265.37" font-family="Inter,Helvetica,Arial" font-size="14.00">Common GND</text>
</g>
<!-- MEGA&#45;&gt;GND -->
<g id="edge14" class="edge">
<title>MEGA&#45;&gt;GND</title>
<path fill="none" stroke="black" d="M2593.39,-60.05C2948.34,-18.35 3858.81,68.88 4098,-100.07 4147.82,-135.25 4158,-214.86 4160.03,-250.83"/>
<polygon fill="black" stroke="black" points="4156.55,-251.37 4160.45,-261.22 4163.54,-251.09 4156.55,-251.37"/>
</g>
<!-- BAT -->
<g id="node2" class="node">
<title>BAT</title>
<polygon fill="none" stroke="black" points="103.5,-209.07 103.5,-245.07 235.5,-245.07 235.5,-209.07 103.5,-209.07"/>
<text text-anchor="middle" x="144.5" y="-223.37" font-family="Inter,Helvetica,Arial" font-size="14.00">11.1V LiPo</text>
<polyline fill="none" stroke="black" points="185.5,-209.07 185.5,-245.07 "/>
<text text-anchor="middle" x="198" y="-223.37" font-family="Inter,Helvetica,Arial" font-size="14.00">+</text>
<polyline fill="none" stroke="black" points="210.5,-209.07 210.5,-245.07 "/>
<text text-anchor="middle" x="223" y="-223.37" font-family="Inter,Helvetica,Arial" font-size="14.00">−</text>
</g>
<!-- LM -->
<g id="node3" class="node">
<title>LM</title>
<polygon fill="none" stroke="black" points="514,-209.07 514,-245.07 853,-245.07 853,-209.07 514,-209.07"/>
<text text-anchor="middle" x="564" y="-223.37" font-family="Inter,Helvetica,Arial" font-size="14.00">LM2596 Buck</text>
<polyline fill="none" stroke="black" points="614,-209.07 614,-245.07 "/>
<text text-anchor="middle" x="633" y="-223.37" font-family="Inter,Helvetica,Arial" font-size="14.00">IN+</text>
<polyline fill="none" stroke="black" points="652,-209.07 652,-245.07 "/>
<text text-anchor="middle" x="671" y="-223.37" font-family="Inter,Helvetica,Arial" font-size="14.00">IN−</text>
<polyline fill="none" stroke="black" points="690,-209.07 690,-245.07 "/>
<text text-anchor="middle" x="727" y="-223.37" font-family="Inter,Helvetica,Arial" font-size="14.00">OUT+ 5V</text>
<polyline fill="none" stroke="black" points="764,-209.07 764,-245.07 "/>
<text text-anchor="middle" x="808.5" y="-223.37" font-family="Inter,Helvetica,Arial" font-size="14.00">OUT− GND</text>
</g>
<!-- BAT&#45;&gt;LM -->
<g id="edge1" class="edge">
<title>BAT&#45;&gt;LM</title>
<path fill="none" stroke="black" d="M235.6,-227.07C302.85,-227.07 410.77,-227.07 503.71,-227.07"/>
<polygon fill="black" stroke="black" points="503.8,-230.57 513.8,-227.07 503.8,-223.57 503.8,-230.57"/>
<text text-anchor="middle" x="426.5" y="-230.87" font-family="Times,serif" font-size="14.00">+ → IN+ / − → IN−</text>
</g>
<!-- BTS_L -->
<g id="node6" class="node">
<title>BTS_L</title>
<polygon fill="none" stroke="black" points="993.5,-376.07 993.5,-412.07 1677.5,-412.07 1677.5,-376.07 993.5,-376.07"/>
<text text-anchor="middle" x="1047.5" y="-390.37" font-family="Inter,Helvetica,Arial" font-size="14.00">BTS7960B Left</text>
<polyline fill="none" stroke="black" points="1101.5,-376.07 1101.5,-412.07 "/>
<text text-anchor="middle" x="1134" y="-390.37" font-family="Inter,Helvetica,Arial" font-size="14.00">VCC 5V</text>
<polyline fill="none" stroke="black" points="1166.5,-376.07 1166.5,-412.07 "/>
<text text-anchor="middle" x="1190" y="-390.37" font-family="Inter,Helvetica,Arial" font-size="14.00">GND</text>
<polyline fill="none" stroke="black" points="1213.5,-376.07 1213.5,-412.07 "/>
<text text-anchor="middle" x="1230.5" y="-390.37" font-family="Inter,Helvetica,Arial" font-size="14.00">B+</text>
<polyline fill="none" stroke="black" points="1247.5,-376.07 1247.5,-412.07 "/>
<text text-anchor="middle" x="1264.5" y="-390.37" font-family="Inter,Helvetica,Arial" font-size="14.00">B−</text>
<polyline fill="none" stroke="black" points="1281.5,-376.07 1281.5,-412.07 "/>
<text text-anchor="middle" x="1300" y="-390.37" font-family="Inter,Helvetica,Arial" font-size="14.00">M+</text>
<polyline fill="none" stroke="black" points="1318.5,-376.07 1318.5,-412.07 "/>
<text text-anchor="middle" x="1337" y="-390.37" font-family="Inter,Helvetica,Arial" font-size="14.00">M−</text>
<polyline fill="none" stroke="black" points="1355.5,-376.07 1355.5,-412.07 "/>
<text text-anchor="middle" x="1396.5" y="-390.37" font-family="Inter,Helvetica,Arial" font-size="14.00">RPWM D6</text>
<polyline fill="none" stroke="black" points="1437.5,-376.07 1437.5,-412.07 "/>
<text text-anchor="middle" x="1477.5" y="-390.37" font-family="Inter,Helvetica,Arial" font-size="14.00">LPWM D4</text>
<polyline fill="none" stroke="black" points="1517.5,-376.07 1517.5,-412.07 "/>
<text text-anchor="middle" x="1558" y="-390.37" font-family="Inter,Helvetica,Arial" font-size="14.00">R_EN D49</text>
<polyline fill="none" stroke="black" points="1598.5,-376.07 1598.5,-412.07 "/>
<text text-anchor="middle" x="1638" y="-390.37" font-family="Inter,Helvetica,Arial" font-size="14.00">L_EN D47</text>
</g>
<!-- BAT&#45;&gt;BTS_L -->
<g id="edge2" class="edge">
<title>BAT&#45;&gt;BTS_L</title>
<path fill="none" stroke="black" d="M235.89,-236.51C267.18,-241.29 305.12,-247.48 339,-254.07 577.12,-300.39 630.53,-344.11 871,-376.07 907.27,-380.89 945.27,-384.56 983.24,-387.35"/>
<polygon fill="black" stroke="black" points="983.2,-390.86 993.42,-388.08 983.69,-383.87 983.2,-390.86"/>
<text text-anchor="middle" x="683.5" y="-375.87" font-family="Times,serif" font-size="14.00">+ → B+ / − → B−</text>
</g>
<!-- BTS_R -->
<g id="node7" class="node">
<title>BTS_R</title>
<polygon fill="none" stroke="black" points="989,-143.07 989,-179.07 1682,-179.07 1682,-143.07 989,-143.07"/>
<text text-anchor="middle" x="1047.5" y="-157.37" font-family="Inter,Helvetica,Arial" font-size="14.00">BTS7960B Right</text>
<polyline fill="none" stroke="black" points="1106,-143.07 1106,-179.07 "/>
<text text-anchor="middle" x="1138.5" y="-157.37" font-family="Inter,Helvetica,Arial" font-size="14.00">VCC 5V</text>
<polyline fill="none" stroke="black" points="1171,-143.07 1171,-179.07 "/>
<text text-anchor="middle" x="1194.5" y="-157.37" font-family="Inter,Helvetica,Arial" font-size="14.00">GND</text>
<polyline fill="none" stroke="black" points="1218,-143.07 1218,-179.07 "/>
<text text-anchor="middle" x="1235" y="-157.37" font-family="Inter,Helvetica,Arial" font-size="14.00">B+</text>
<polyline fill="none" stroke="black" points="1252,-143.07 1252,-179.07 "/>
<text text-anchor="middle" x="1269" y="-157.37" font-family="Inter,Helvetica,Arial" font-size="14.00">B−</text>
<polyline fill="none" stroke="black" points="1286,-143.07 1286,-179.07 "/>
<text text-anchor="middle" x="1304.5" y="-157.37" font-family="Inter,Helvetica,Arial" font-size="14.00">M+</text>
<polyline fill="none" stroke="black" points="1323,-143.07 1323,-179.07 "/>
<text text-anchor="middle" x="1341.5" y="-157.37" font-family="Inter,Helvetica,Arial" font-size="14.00">M−</text>
<polyline fill="none" stroke="black" points="1360,-143.07 1360,-179.07 "/>
<text text-anchor="middle" x="1401" y="-157.37" font-family="Inter,Helvetica,Arial" font-size="14.00">RPWM D9</text>
<polyline fill="none" stroke="black" points="1442,-143.07 1442,-179.07 "/>
<text text-anchor="middle" x="1482" y="-157.37" font-family="Inter,Helvetica,Arial" font-size="14.00">LPWM D7</text>
<polyline fill="none" stroke="black" points="1522,-143.07 1522,-179.07 "/>
<text text-anchor="middle" x="1562.5" y="-157.37" font-family="Inter,Helvetica,Arial" font-size="14.00">R_EN D53</text>
<polyline fill="none" stroke="black" points="1603,-143.07 1603,-179.07 "/>
<text text-anchor="middle" x="1642.5" y="-157.37" font-family="Inter,Helvetica,Arial" font-size="14.00">L_EN D51</text>
</g>
<!-- BAT&#45;&gt;BTS_R -->
<g id="edge3" class="edge">
<title>BAT&#45;&gt;BTS_R</title>
<path fill="none" stroke="black" d="M235.59,-211.89C371.61,-181.78 696.16,-118.37 971,-130.07 1028.76,-132.53 1091.53,-137.17 1148.41,-142.13"/>
<polygon fill="black" stroke="black" points="1148.32,-145.64 1158.59,-143.03 1148.93,-138.66 1148.32,-145.64"/>
<text text-anchor="middle" x="683.5" y="-163.87" font-family="Times,serif" font-size="14.00">+ → B+ / − → B−</text>
</g>
<!-- LM&#45;&gt;MEGA -->
<g id="edge4" class="edge">
<title>LM&#45;&gt;MEGA</title>
<path fill="none" stroke="black" d="M715.26,-208.94C751.25,-188.73 813.28,-156.92 871,-142.07 921.94,-128.96 936.5,-136.29 989,-133.07 1249.37,-117.1 1536.17,-105.08 1786.11,-96.42"/>
<polygon fill="black" stroke="black" points="1786.23,-99.92 1796.11,-96.08 1785.99,-92.92 1786.23,-99.92"/>
<text text-anchor="middle" x="921" y="-145.87" font-family="Times,serif" font-size="14.00">5V / GND</text>
</g>
<!-- REG33 -->
<g id="node4" class="node">
<title>REG33</title>
<polygon fill="none" stroke="black" points="1164.5,-319.07 1164.5,-355.07 1506.5,-355.07 1506.5,-319.07 1164.5,-319.07"/>
<text text-anchor="middle" x="1248.5" y="-333.37" font-family="Inter,Helvetica,Arial" font-size="14.00">3.3V Reg (AMS1117‑3.3)</text>
<polyline fill="none" stroke="black" points="1332.5,-319.07 1332.5,-355.07 "/>
<text text-anchor="middle" x="1357.5" y="-333.37" font-family="Inter,Helvetica,Arial" font-size="14.00">IN 5V</text>
<polyline fill="none" stroke="black" points="1382.5,-319.07 1382.5,-355.07 "/>
<text text-anchor="middle" x="1406" y="-333.37" font-family="Inter,Helvetica,Arial" font-size="14.00">GND</text>
<polyline fill="none" stroke="black" points="1429.5,-319.07 1429.5,-355.07 "/>
<text text-anchor="middle" x="1468" y="-333.37" font-family="Inter,Helvetica,Arial" font-size="14.00">OUT 3.3V</text>
</g>
<!-- LM&#45;&gt;REG33 -->
<g id="edge9" class="edge">
<title>LM&#45;&gt;REG33</title>
<path fill="none" stroke="black" d="M768.82,-245.12C800.77,-251.73 837.5,-259.06 871,-265.07 980.62,-284.74 1105.41,-303.94 1197.86,-317.56"/>
<polygon fill="black" stroke="black" points="1197.44,-321.04 1207.84,-319.03 1198.45,-314.11 1197.44,-321.04"/>
<text text-anchor="middle" x="921" y="-284.87" font-family="Times,serif" font-size="14.00">5V → IN</text>
</g>
<!-- LM&#45;&gt;BTS_L -->
<g id="edge5" class="edge">
<title>LM&#45;&gt;BTS_L</title>
<path fill="none" stroke="black" d="M715.19,-245.29C768.68,-276.04 883.4,-337.58 989,-365.07 1002.01,-368.45 1015.38,-371.47 1028.94,-374.15"/>
<polygon fill="black" stroke="black" points="1028.37,-377.61 1038.85,-376.05 1029.69,-370.73 1028.37,-377.61"/>
<text text-anchor="middle" x="921" y="-360.87" font-family="Times,serif" font-size="14.00">5V → VCC</text>
</g>
<!-- LM&#45;&gt;BTS_R -->
<g id="edge6" class="edge">
<title>LM&#45;&gt;BTS_R</title>
<path fill="none" stroke="black" d="M731.59,-209.06C768.81,-195.78 822.41,-178.74 871,-171.07 905.7,-165.59 942.04,-161.68 978.45,-158.98"/>
<polygon fill="black" stroke="black" points="979,-162.45 988.73,-158.25 978.5,-155.47 979,-162.45"/>
<text text-anchor="middle" x="921" y="-174.87" font-family="Times,serif" font-size="14.00">5V → VCC</text>
</g>
<!-- IR -->
<g id="node10" class="node">
<title>IR</title>
<polygon fill="none" stroke="black" points="2270,-188.07 2270,-224.07 2629,-224.07 2629,-188.07 2270,-188.07"/>
<text text-anchor="middle" x="2332" y="-202.37" font-family="Inter,Helvetica,Arial" font-size="14.00">8‑Analog IR Array</text>
<polyline fill="none" stroke="black" points="2394,-188.07 2394,-224.07 "/>
<text text-anchor="middle" x="2455.5" y="-202.37" font-family="Inter,Helvetica,Arial" font-size="14.00">OUT0..7→A7..A0</text>
<polyline fill="none" stroke="black" points="2517,-188.07 2517,-224.07 "/>
<text text-anchor="middle" x="2549.5" y="-202.37" font-family="Inter,Helvetica,Arial" font-size="14.00">VCC 5V</text>
<polyline fill="none" stroke="black" points="2582,-188.07 2582,-224.07 "/>
<text text-anchor="middle" x="2605.5" y="-202.37" font-family="Inter,Helvetica,Arial" font-size="14.00">GND</text>
</g>
<!-- LM&#45;&gt;IR -->
<g id="edge7" class="edge">
<title>LM&#45;&gt;IR</title>
<path fill="none" stroke="black" d="M853.2,-210.07C859.2,-209.69 865.15,-209.35 871,-209.07 1371.8,-184.48 1963.1,-193.52 2259.33,-200.67"/>
<polygon fill="black" stroke="black" points="2259.66,-204.18 2269.75,-200.93 2259.84,-197.18 2259.66,-204.18"/>
<text text-anchor="middle" x="921" y="-212.87" font-family="Times,serif" font-size="14.00">5V → VCC</text>
</g>
<!-- BUZ -->
<g id="node13" class="node">
<title>BUZ</title>
<polygon fill="none" stroke="black" points="2353,-230.07 2353,-266.07 2546,-266.07 2546,-230.07 2353,-230.07"/>
<text text-anchor="middle" x="2382.5" y="-244.37" font-family="Inter,Helvetica,Arial" font-size="14.00">Buzzer</text>
<polyline fill="none" stroke="black" points="2412,-230.07 2412,-266.07 "/>
<text text-anchor="middle" x="2444" y="-244.37" font-family="Inter,Helvetica,Arial" font-size="14.00">+→D13</text>
<polyline fill="none" stroke="black" points="2476,-230.07 2476,-266.07 "/>
<text text-anchor="middle" x="2511" y="-244.37" font-family="Inter,Helvetica,Arial" font-size="14.00">−→GND</text>
</g>
<!-- LM&#45;&gt;BUZ -->
<g id="edge8" class="edge">
<title>LM&#45;&gt;BUZ</title>
<path fill="none" stroke="black" d="M853.24,-229.08C1213.17,-233.36 2047.47,-243.29 2342.66,-246.81"/>
<polygon fill="black" stroke="black" points="2342.89,-250.31 2352.93,-246.93 2342.98,-243.31 2342.89,-250.31"/>
<text text-anchor="middle" x="921" y="-234.87" font-family="Times,serif" font-size="14.00">5V (if needed)</text>
</g>
<!-- ESP01 -->
<g id="node5" class="node">
<title>ESP01</title>
<polygon fill="none" stroke="black" points="3217,-330.07 3217,-366.07 4079,-366.07 4079,-330.07 3217,-330.07"/>
<text text-anchor="middle" x="3284" y="-344.37" font-family="Inter,Helvetica,Arial" font-size="14.00">ESP‑01 (ESP8266)</text>
<polyline fill="none" stroke="black" points="3351,-330.07 3351,-366.07 "/>
<text text-anchor="middle" x="3389.5" y="-344.37" font-family="Inter,Helvetica,Arial" font-size="14.00">VCC 3.3V</text>
<polyline fill="none" stroke="black" points="3428,-330.07 3428,-366.07 "/>
<text text-anchor="middle" x="3451.5" y="-344.37" font-family="Inter,Helvetica,Arial" font-size="14.00">GND</text>
<polyline fill="none" stroke="black" points="3475,-330.07 3475,-366.07 "/>
<text text-anchor="middle" x="3533" y="-344.37" font-family="Inter,Helvetica,Arial" font-size="14.00">EN/CH_PD 3.3V</text>
<polyline fill="none" stroke="black" points="3591,-330.07 3591,-366.07 "/>
<text text-anchor="middle" x="3613" y="-344.37" font-family="Inter,Helvetica,Arial" font-size="14.00">RST</text>
<polyline fill="none" stroke="black" points="3635,-330.07 3635,-366.07 "/>
<text text-anchor="middle" x="3695.5" y="-344.37" font-family="Inter,Helvetica,Arial" font-size="14.00">TXD→Mega D10</text>
<polyline fill="none" stroke="black" points="3756,-330.07 3756,-366.07 "/>
<text text-anchor="middle" x="3851.5" y="-344.37" font-family="Inter,Helvetica,Arial" font-size="14.00">RXD←Mega D11 (level shift)</text>
<polyline fill="none" stroke="black" points="3947,-330.07 3947,-366.07 "/>
<text text-anchor="middle" x="3980" y="-344.37" font-family="Inter,Helvetica,Arial" font-size="14.00">GPIO0↑</text>
<polyline fill="none" stroke="black" points="4013,-330.07 4013,-366.07 "/>
<text text-anchor="middle" x="4046" y="-344.37" font-family="Inter,Helvetica,Arial" font-size="14.00">GPIO2↑</text>
</g>
<!-- REG33&#45;&gt;ESP01 -->
<g id="edge10" class="edge">
<title>REG33&#45;&gt;ESP01</title>
<path fill="none" stroke="black" d="M1506.87,-337.88C1861.96,-339.57 2690.98,-343.52 3206.72,-345.97"/>
<polygon fill="black" stroke="black" points="3206.93,-349.47 3216.95,-346.02 3206.97,-342.47 3206.93,-349.47"/>
<text text-anchor="middle" x="2449.5" y="-348.87" font-family="Times,serif" font-size="14.00">3.3V → VCC, EN/CH_PD, pull‑ups</text>
</g>
<!-- GYRO -->
<g id="node11" class="node">
<title>GYRO</title>
<polygon fill="none" stroke="black" points="3455,-275.07 3455,-311.07 3841,-311.07 3841,-275.07 3455,-275.07"/>
<text text-anchor="middle" x="3513" y="-289.37" font-family="Inter,Helvetica,Arial" font-size="14.00">L3G4200D Gyro</text>
<polyline fill="none" stroke="black" points="3571,-275.07 3571,-311.07 "/>
<text text-anchor="middle" x="3609.5" y="-289.37" font-family="Inter,Helvetica,Arial" font-size="14.00">VCC 3.3V</text>
<polyline fill="none" stroke="black" points="3648,-275.07 3648,-311.07 "/>
<text text-anchor="middle" x="3671.5" y="-289.37" font-family="Inter,Helvetica,Arial" font-size="14.00">GND</text>
<polyline fill="none" stroke="black" points="3695,-275.07 3695,-311.07 "/>
<text text-anchor="middle" x="3732" y="-289.37" font-family="Inter,Helvetica,Arial" font-size="14.00">SDA→20</text>
<polyline fill="none" stroke="black" points="3769,-275.07 3769,-311.07 "/>
<text text-anchor="middle" x="3805" y="-289.37" font-family="Inter,Helvetica,Arial" font-size="14.00">SCL→21</text>
</g>
<!-- REG33&#45;&gt;GYRO -->
<g id="edge11" class="edge">
<title>REG33&#45;&gt;GYRO</title>
<path fill="none" stroke="black" d="M1506.58,-327.37C1567.57,-324.23 1636.85,-321.05 1700,-319.07 2336.7,-299.06 3091,-294.42 3444.79,-293.36"/>
<polygon fill="black" stroke="black" points="3444.89,-296.86 3454.88,-293.33 3444.87,-289.86 3444.89,-296.86"/>
<text text-anchor="middle" x="2449.5" y="-322.87" font-family="Times,serif" font-size="14.00">3.3V → VCC</text>
</g>
<!-- REG33&#45;&gt;GND -->
<g id="edge18" class="edge">
<title>REG33&#45;&gt;GND</title>
<path fill="none" stroke="black" d="M1506.96,-352.07C1567.82,-356.81 1636.93,-361.48 1700,-364.07 2373.68,-391.72 2542.76,-373.4 3217,-376.07 3408.55,-376.82 3907.35,-461.1 4079,-376.07 4117.08,-357.2 4142.21,-311.08 4153.55,-285.99"/>
<polygon fill="black" stroke="black" points="4156.83,-287.24 4157.57,-276.67 4150.4,-284.47 4156.83,-287.24"/>
</g>
<!-- ESP01&#45;&gt;GND -->
<g id="edge19" class="edge">
<title>ESP01&#45;&gt;GND</title>
<path fill="none" stroke="black" d="M4048.59,-330.01C4058.89,-327.29 4069.04,-324.31 4079,-321.07 4103.54,-313.06 4128.02,-295.9 4143.64,-283.48"/>
<polygon fill="black" stroke="black" points="4146.25,-285.87 4151.75,-276.82 4141.8,-280.46 4146.25,-285.87"/>
</g>
<!-- M_L -->
<g id="node8" class="node">
<title>M_L</title>
<polygon fill="none" stroke="black" points="3517,-424.07 3517,-460.07 3779,-460.07 3779,-424.07 3517,-424.07"/>
<text text-anchor="middle" x="3593" y="-438.37" font-family="Inter,Helvetica,Arial" font-size="14.00">Left Motor JGA25‑370</text>
<polyline fill="none" stroke="black" points="3669,-424.07 3669,-460.07 "/>
<text text-anchor="middle" x="3724" y="-438.37" font-family="Inter,Helvetica,Arial" font-size="14.00">Encoder A→D2</text>
</g>
<!-- BTS_L&#45;&gt;M_L -->
<g id="edge20" class="edge">
<title>BTS_L&#45;&gt;M_L</title>
<path fill="none" stroke="black" d="M1677.51,-408.39C1685.08,-408.62 1692.58,-408.85 1700,-409.07 2376.74,-428.76 3186.16,-437.84 3506.55,-440.86"/>
<polygon fill="black" stroke="black" points="3506.78,-444.36 3516.81,-440.95 3506.84,-437.36 3506.78,-444.36"/>
<text text-anchor="middle" x="2449.5" y="-440.87" font-family="Times,serif" font-size="14.00">M+ / M−</text>
</g>
<!-- BTS_L&#45;&gt;GND -->
<g id="edge12" class="edge">
<title>BTS_L&#45;&gt;GND</title>
<path fill="none" stroke="black" d="M1419.38,-412.09C1492.74,-427.11 1602.92,-447.4 1700,-456.07 1963.29,-479.58 3859.76,-617.75 4079,-470.07 4141.95,-427.66 4156.3,-327.41 4159.55,-286.71"/>
<polygon fill="black" stroke="black" points="4163.05,-286.91 4160.22,-276.7 4156.06,-286.45 4163.05,-286.91"/>
</g>
<!-- M_R -->
<g id="node9" class="node">
<title>M_R</title>
<polygon fill="none" stroke="black" points="3512.5,-143.07 3512.5,-179.07 3783.5,-179.07 3783.5,-143.07 3512.5,-143.07"/>
<text text-anchor="middle" x="3593" y="-157.37" font-family="Inter,Helvetica,Arial" font-size="14.00">Right Motor JGA25‑370</text>
<polyline fill="none" stroke="black" points="3673.5,-143.07 3673.5,-179.07 "/>
<text text-anchor="middle" x="3728.5" y="-157.37" font-family="Inter,Helvetica,Arial" font-size="14.00">Encoder A→D3</text>
</g>
<!-- BTS_R&#45;&gt;M_R -->
<g id="edge21" class="edge">
<title>BTS_R&#45;&gt;M_R</title>
<path fill="none" stroke="black" d="M1682.09,-161.07C2196.51,-161.07 3141.67,-161.07 3502.13,-161.07"/>
<polygon fill="black" stroke="black" points="3502.37,-164.57 3512.37,-161.07 3502.37,-157.57 3502.37,-164.57"/>
<text text-anchor="middle" x="2449.5" y="-164.87" font-family="Times,serif" font-size="14.00">M+ / M−</text>
</g>
<!-- BTS_R&#45;&gt;GND -->
<g id="edge13" class="edge">
<title>BTS_R&#45;&gt;GND</title>
<path fill="none" stroke="black" d="M1682.21,-154.38C2059.43,-147.44 2681.13,-137.06 3217,-133.07 3408.55,-131.64 3912.33,-38.64 4079,-133.07 4124.43,-158.81 4147.29,-221.08 4156.07,-251.61"/>
<polygon fill="black" stroke="black" points="4152.7,-252.55 4158.69,-261.29 4159.46,-250.72 4152.7,-252.55"/>
</g>
<!-- IR&#45;&gt;GND -->
<g id="edge15" class="edge">
<title>IR&#45;&gt;GND</title>
<path fill="none" stroke="black" d="M2629.34,-204.82C2992.33,-203.22 3804.34,-204.61 4079,-246.07 4096.01,-248.63 4114.49,-253.66 4129.55,-258.36"/>
<polygon fill="black" stroke="black" points="4128.78,-261.79 4139.37,-261.53 4130.93,-255.13 4128.78,-261.79"/>
</g>
<!-- GYRO&#45;&gt;GND -->
<g id="edge16" class="edge">
<title>GYRO&#45;&gt;GND</title>
<path fill="none" stroke="black" d="M3841.28,-284.05C3935.89,-279.61 4042.87,-274.59 4105.84,-271.63"/>
<polygon fill="black" stroke="black" points="4106.12,-275.12 4115.94,-271.16 4105.79,-268.13 4106.12,-275.12"/>
</g>
<!-- BTN -->
<g id="node12" class="node">
<title>BTN</title>
<polygon fill="none" stroke="black" points="0,-264.07 0,-300.07 339,-300.07 339,-264.07 0,-264.07"/>
<text text-anchor="middle" x="31" y="-278.37" font-family="Inter,Helvetica,Arial" font-size="14.00">Buttons</text>
<polyline fill="none" stroke="black" points="62,-264.07 62,-300.07 "/>
<text text-anchor="middle" x="103.5" y="-278.37" font-family="Inter,Helvetica,Arial" font-size="14.00">Btn1→D23</text>
<polyline fill="none" stroke="black" points="145,-264.07 145,-300.07 "/>
<text text-anchor="middle" x="186.5" y="-278.37" font-family="Inter,Helvetica,Arial" font-size="14.00">Btn2→D25</text>
<polyline fill="none" stroke="black" points="228,-264.07 228,-300.07 "/>
<text text-anchor="middle" x="283.5" y="-278.37" font-family="Inter,Helvetica,Arial" font-size="14.00">Reset→RESET</text>
</g>
<!-- BUZ&#45;&gt;GND -->
<g id="edge17" class="edge">
<title>BUZ&#45;&gt;GND</title>
<path fill="none" stroke="black" d="M2546.43,-247.78C2797.94,-247.29 3497.16,-247.76 4079,-265.07 4087.55,-265.32 4096.6,-265.68 4105.44,-266.08"/>
<polygon fill="black" stroke="black" points="4105.52,-269.58 4115.67,-266.56 4105.85,-262.59 4105.52,-269.58"/>
</g>
</g>
</svg>
