<?xml version="1.0" encoding="UTF-8" standalone="no"?>
<!DOCTYPE svg PUBLIC "-//W3C//DTD SVG 1.1//EN"
 "http://www.w3.org/Graphics/SVG/1.1/DTD/svg11.dtd">
<!-- Generated by graphviz version 2.43.0 (0)
 -->
<!-- Title: remote_wiring Pages: 1 -->
<svg width="3797pt" height="522pt"
 viewBox="0.00 0.00 3797.00 521.82" xmlns="http://www.w3.org/2000/svg" xmlns:xlink="http://www.w3.org/1999/xlink">
<g id="graph0" class="graph" transform="scale(1 1) rotate(0) translate(4 517.82)">
<title>remote_wiring</title>
<polygon fill="white" stroke="transparent" points="-4,4 -4,-517.82 3793,-517.82 3793,4 -4,4"/>
<!-- ESP -->
<g id="node1" class="node">
<title>ESP</title>
<polygon fill="none" stroke="black" points="1736,-224.32 1736,-260.32 2887,-260.32 2887,-224.32 1736,-224.32"/>
<text text-anchor="middle" x="1808" y="-238.62" font-family="Inter,Helvetica,Arial" font-size="14.00">ESP32 (Dev Module)</text>
<polyline fill="none" stroke="black" points="1880,-224.32 1880,-260.32 "/>
<text text-anchor="middle" x="1944.5" y="-238.62" font-family="Inter,Helvetica,Arial" font-size="14.00">GPIO: 13 (Buzzer)</text>
<polyline fill="none" stroke="black" points="2009,-224.32 2009,-260.32 "/>
<text text-anchor="middle" x="2067" y="-238.62" font-family="Inter,Helvetica,Arial" font-size="14.00">21 (cam_on_off)</text>
<polyline fill="none" stroke="black" points="2125,-224.32 2125,-260.32 "/>
<text text-anchor="middle" x="2164.5" y="-238.62" font-family="Inter,Helvetica,Arial" font-size="14.00">25 (BTN1)</text>
<polyline fill="none" stroke="black" points="2204,-224.32 2204,-260.32 "/>
<text text-anchor="middle" x="2243.5" y="-238.62" font-family="Inter,Helvetica,Arial" font-size="14.00">19 (BTN2)</text>
<polyline fill="none" stroke="black" points="2283,-224.32 2283,-260.32 "/>
<text text-anchor="middle" x="2322.5" y="-238.62" font-family="Inter,Helvetica,Arial" font-size="14.00">22 (BTN3)</text>
<polyline fill="none" stroke="black" points="2362,-224.32 2362,-260.32 "/>
<text text-anchor="middle" x="2422" y="-238.62" font-family="Inter,Helvetica,Arial" font-size="14.00">33 (Refresh IRQ)</text>
<polyline fill="none" stroke="black" points="2482,-224.32 2482,-260.32 "/>
<text text-anchor="middle" x="2541.5" y="-238.62" font-family="Inter,Helvetica,Arial" font-size="14.00">27 (Battery ADC)</text>
<polyline fill="none" stroke="black" points="2601,-224.32 2601,-260.32 "/>
<text text-anchor="middle" x="2662" y="-238.62" font-family="Inter,Helvetica,Arial" font-size="14.00">SPI(SW): CLK 18</text>
<polyline fill="none" stroke="black" points="2723,-224.32 2723,-260.32 "/>
<text text-anchor="middle" x="2754" y="-238.62" font-family="Inter,Helvetica,Arial" font-size="14.00">DAT 23</text>
<polyline fill="none" stroke="black" points="2785,-224.32 2785,-260.32 "/>
<text text-anchor="middle" x="2808.5" y="-238.62" font-family="Inter,Helvetica,Arial" font-size="14.00">CS 5</text>
<polyline fill="none" stroke="black" points="2832,-224.32 2832,-260.32 "/>
<text text-anchor="middle" x="2859.5" y="-238.62" font-family="Inter,Helvetica,Arial" font-size="14.00">RST 4</text>
</g>
<!-- LCD -->
<g id="node2" class="node">
<title>LCD</title>
<polygon fill="none" stroke="black" points="3209.5,-375.32 3209.5,-411.32 3610.5,-411.32 3610.5,-375.32 3209.5,-375.32"/>
<text text-anchor="middle" x="3281.5" y="-389.62" font-family="Inter,Helvetica,Arial" font-size="14.00">ST7920 128×64 LCD</text>
<polyline fill="none" stroke="black" points="3353.5,-375.32 3353.5,-411.32 "/>
<text text-anchor="middle" x="3375" y="-389.62" font-family="Inter,Helvetica,Arial" font-size="14.00">CLK</text>
<polyline fill="none" stroke="black" points="3396.5,-375.32 3396.5,-411.32 "/>
<text text-anchor="middle" x="3418" y="-389.62" font-family="Inter,Helvetica,Arial" font-size="14.00">DAT</text>
<polyline fill="none" stroke="black" points="3439.5,-375.32 3439.5,-411.32 "/>
<text text-anchor="middle" x="3457" y="-389.62" font-family="Inter,Helvetica,Arial" font-size="14.00">CS</text>
<polyline fill="none" stroke="black" points="3474.5,-375.32 3474.5,-411.32 "/>
<text text-anchor="middle" x="3496.5" y="-389.62" font-family="Inter,Helvetica,Arial" font-size="14.00">RST</text>
<polyline fill="none" stroke="black" points="3518.5,-375.32 3518.5,-411.32 "/>
<text text-anchor="middle" x="3541" y="-389.62" font-family="Inter,Helvetica,Arial" font-size="14.00">VCC</text>
<polyline fill="none" stroke="black" points="3563.5,-375.32 3563.5,-411.32 "/>
<text text-anchor="middle" x="3587" y="-389.62" font-family="Inter,Helvetica,Arial" font-size="14.00">GND</text>
</g>
<!-- ESP&#45;&gt;LCD -->
<g id="edge8" class="edge">
<title>ESP&#45;&gt;LCD</title>
<path fill="none" stroke="black" d="M2429.07,-260.33C2548.5,-278.67 2739.6,-307.68 2905,-331.32 3009.78,-346.29 3036.34,-347.51 3141,-363.32 3149.02,-364.53 3150.96,-365.22 3159,-366.32 3178.79,-369.03 3199.5,-371.64 3220.15,-374.09"/>
<polygon fill="black" stroke="black" points="3219.95,-377.59 3230.29,-375.28 3220.77,-370.64 3219.95,-377.59"/>
<text text-anchor="middle" x="3023" y="-367.12" font-family="Times,serif" font-size="14.00">18→CLK, 23→DAT, 5→CS, 4→RST</text>
</g>
<!-- BTNS -->
<g id="node3" class="node">
<title>BTNS</title>
<polygon fill="none" stroke="black" points="3159,-320.32 3159,-356.32 3661,-356.32 3661,-320.32 3159,-320.32"/>
<text text-anchor="middle" x="3235" y="-334.62" font-family="Inter,Helvetica,Arial" font-size="14.00">Buttons (x3 + Refresh)</text>
<polyline fill="none" stroke="black" points="3311,-320.32 3311,-356.32 "/>
<text text-anchor="middle" x="3351" y="-334.62" font-family="Inter,Helvetica,Arial" font-size="14.00">BTN1→25</text>
<polyline fill="none" stroke="black" points="3391,-320.32 3391,-356.32 "/>
<text text-anchor="middle" x="3431" y="-334.62" font-family="Inter,Helvetica,Arial" font-size="14.00">BTN2→19</text>
<polyline fill="none" stroke="black" points="3471,-320.32 3471,-356.32 "/>
<text text-anchor="middle" x="3511" y="-334.62" font-family="Inter,Helvetica,Arial" font-size="14.00">BTN3→22</text>
<polyline fill="none" stroke="black" points="3551,-320.32 3551,-356.32 "/>
<text text-anchor="middle" x="3606" y="-334.62" font-family="Inter,Helvetica,Arial" font-size="14.00">REFRESH→33</text>
</g>
<!-- ESP&#45;&gt;BTNS -->
<g id="edge9" class="edge">
<title>ESP&#45;&gt;BTNS</title>
<path fill="none" stroke="black" d="M2518.1,-260.32C2710.55,-277.17 2997.04,-302.25 3192.84,-319.39"/>
<polygon fill="black" stroke="black" points="3192.7,-322.89 3202.97,-320.28 3193.31,-315.92 3192.7,-322.89"/>
<text text-anchor="middle" x="3023" y="-316.12" font-family="Times,serif" font-size="14.00">GPIO 25/19/22/33</text>
</g>
<!-- BUZ -->
<g id="node4" class="node">
<title>BUZ</title>
<polygon fill="none" stroke="black" points="3318.5,-265.32 3318.5,-301.32 3501.5,-301.32 3501.5,-265.32 3318.5,-265.32"/>
<text text-anchor="middle" x="3348" y="-279.62" font-family="Inter,Helvetica,Arial" font-size="14.00">Buzzer</text>
<polyline fill="none" stroke="black" points="3377.5,-265.32 3377.5,-301.32 "/>
<text text-anchor="middle" x="3404.5" y="-279.62" font-family="Inter,Helvetica,Arial" font-size="14.00">+→13</text>
<polyline fill="none" stroke="black" points="3431.5,-265.32 3431.5,-301.32 "/>
<text text-anchor="middle" x="3466.5" y="-279.62" font-family="Inter,Helvetica,Arial" font-size="14.00">−→GND</text>
</g>
<!-- ESP&#45;&gt;BUZ -->
<g id="edge10" class="edge">
<title>ESP&#45;&gt;BUZ</title>
<path fill="none" stroke="black" d="M2794.24,-260.33C2986.71,-267.53 3190.29,-275.14 3308.18,-279.55"/>
<polygon fill="black" stroke="black" points="3308.14,-283.05 3318.26,-279.93 3308.4,-276.05 3308.14,-283.05"/>
<text text-anchor="middle" x="3023" y="-276.12" font-family="Times,serif" font-size="14.00">GPIO 13</text>
</g>
<!-- DIV -->
<g id="node10" class="node">
<title>DIV</title>
<polygon fill="none" stroke="black" points="3240.5,-210.32 3240.5,-246.32 3579.5,-246.32 3579.5,-210.32 3240.5,-210.32"/>
<text text-anchor="middle" x="3293" y="-224.62" font-family="Inter,Helvetica,Arial" font-size="14.00">Battery Divider</text>
<polyline fill="none" stroke="black" points="3345.5,-210.32 3345.5,-246.32 "/>
<text text-anchor="middle" x="3362.5" y="-224.62" font-family="Inter,Helvetica,Arial" font-size="14.00">R1</text>
<polyline fill="none" stroke="black" points="3379.5,-210.32 3379.5,-246.32 "/>
<text text-anchor="middle" x="3396.5" y="-224.62" font-family="Inter,Helvetica,Arial" font-size="14.00">R2</text>
<polyline fill="none" stroke="black" points="3413.5,-210.32 3413.5,-246.32 "/>
<text text-anchor="middle" x="3465.5" y="-224.62" font-family="Inter,Helvetica,Arial" font-size="14.00">Mid→GPIO27</text>
<polyline fill="none" stroke="black" points="3517.5,-210.32 3517.5,-246.32 "/>
<text text-anchor="middle" x="3548.5" y="-224.62" font-family="Inter,Helvetica,Arial" font-size="14.00">→GND</text>
</g>
<!-- ESP&#45;&gt;DIV -->
<g id="edge11" class="edge">
<title>ESP&#45;&gt;DIV</title>
<path fill="none" stroke="black" d="M2887.24,-234.98C3012.1,-233.39 3135.11,-231.82 3230.31,-230.6"/>
<polygon fill="black" stroke="black" points="3230.36,-234.1 3240.32,-230.47 3230.27,-227.1 3230.36,-234.1"/>
<text text-anchor="middle" x="3023" y="-238.12" font-family="Times,serif" font-size="14.00">GPIO 27 ← Mid</text>
</g>
<!-- CAM -->
<g id="node11" class="node">
<title>CAM</title>
<polygon fill="none" stroke="black" points="3622.5,-191.32 3191.5,-191.32 3191.5,-155.32 3628.5,-155.32 3628.5,-185.32 3622.5,-191.32"/>
<polyline fill="none" stroke="black" points="3622.5,-191.32 3622.5,-185.32 "/>
<polyline fill="none" stroke="black" points="3628.5,-185.32 3622.5,-185.32 "/>
<text text-anchor="middle" x="3410" y="-169.62" font-family="Inter,Helvetica,Arial" font-size="14.00">{cam_on_off flag|GPIO21 HIGH|No physical camera power switching}</text>
</g>
<!-- ESP&#45;&gt;CAM -->
<g id="edge12" class="edge">
<title>ESP&#45;&gt;CAM</title>
<path fill="none" stroke="black" d="M2598.8,-224.3C2780.47,-212.87 3012.3,-198.28 3181.39,-187.64"/>
<polygon fill="black" stroke="black" points="3181.66,-191.13 3191.42,-187.01 3181.22,-184.15 3181.66,-191.13"/>
<text text-anchor="middle" x="3023" y="-208.12" font-family="Times,serif" font-size="14.00">GPIO 21</text>
</g>
<!-- GND -->
<g id="node12" class="node">
<title>GND</title>
<text text-anchor="middle" x="3743.5" y="-224.62" font-family="Inter,Helvetica,Arial" font-size="14.00">Common GND</text>
</g>
<!-- ESP&#45;&gt;GND -->
<g id="edge13" class="edge">
<title>ESP&#45;&gt;GND</title>
<path fill="none" stroke="black" d="M2409.27,-224.27C2679.05,-175.71 3434.54,-52.11 3661,-146.32 3692.85,-159.57 3718.67,-191.99 3732.2,-211.87"/>
<polygon fill="black" stroke="black" points="3729.43,-214.02 3737.83,-220.48 3735.29,-210.19 3729.43,-214.02"/>
</g>
<!-- LCD&#45;&gt;GND -->
<g id="edge14" class="edge">
<title>LCD&#45;&gt;GND</title>
<path fill="none" stroke="black" d="M3610.71,-389.08C3628.5,-383.65 3645.59,-376.25 3661,-366.32 3705.17,-337.85 3728.53,-276.27 3737.74,-245.94"/>
<polygon fill="black" stroke="black" points="3741.2,-246.55 3740.59,-235.97 3734.47,-244.62 3741.2,-246.55"/>
</g>
<!-- BTNS&#45;&gt;GND -->
<g id="edge15" class="edge">
<title>BTNS&#45;&gt;GND</title>
<path fill="none" stroke="black" d="M3640.06,-320.24C3647.22,-317.56 3654.22,-314.6 3661,-311.32 3692.24,-296.19 3718.27,-263.96 3732,-244.42"/>
<polygon fill="black" stroke="black" points="3735.01,-246.21 3737.72,-235.97 3729.22,-242.28 3735.01,-246.21"/>
</g>
<!-- BUZ&#45;&gt;GND -->
<g id="edge16" class="edge">
<title>BUZ&#45;&gt;GND</title>
<path fill="none" stroke="black" d="M3501.76,-278.42C3549.56,-274.61 3608.91,-267.93 3661,-256.32 3679.33,-252.23 3699.27,-245.43 3714.85,-239.54"/>
<polygon fill="black" stroke="black" points="3716.32,-242.72 3724.39,-235.85 3713.8,-236.2 3716.32,-242.72"/>
</g>
<!-- BAT -->
<g id="node5" class="node">
<title>BAT</title>
<polygon fill="none" stroke="black" points="1343.5,-477.32 1343.5,-513.32 1485.5,-513.32 1485.5,-477.32 1343.5,-477.32"/>
<text text-anchor="middle" x="1389.5" y="-491.62" font-family="Inter,Helvetica,Arial" font-size="14.00">18650 Li‑ion</text>
<polyline fill="none" stroke="black" points="1435.5,-477.32 1435.5,-513.32 "/>
<text text-anchor="middle" x="1448" y="-491.62" font-family="Inter,Helvetica,Arial" font-size="14.00">+</text>
<polyline fill="none" stroke="black" points="1460.5,-477.32 1460.5,-513.32 "/>
<text text-anchor="middle" x="1473" y="-491.62" font-family="Inter,Helvetica,Arial" font-size="14.00">−</text>
</g>
<!-- BMS -->
<g id="node6" class="node">
<title>BMS</title>
<polygon fill="none" stroke="black" points="117,-366.32 117,-402.32 364,-402.32 364,-366.32 117,-366.32"/>
<text text-anchor="middle" x="172.5" y="-380.62" font-family="Inter,Helvetica,Arial" font-size="14.00">BMS/Protection</text>
<polyline fill="none" stroke="black" points="228,-366.32 228,-402.32 "/>
<text text-anchor="middle" x="245" y="-380.62" font-family="Inter,Helvetica,Arial" font-size="14.00">B+</text>
<polyline fill="none" stroke="black" points="262,-366.32 262,-402.32 "/>
<text text-anchor="middle" x="279" y="-380.62" font-family="Inter,Helvetica,Arial" font-size="14.00">B−</text>
<polyline fill="none" stroke="black" points="296,-366.32 296,-402.32 "/>
<text text-anchor="middle" x="313" y="-380.62" font-family="Inter,Helvetica,Arial" font-size="14.00">P+</text>
<polyline fill="none" stroke="black" points="330,-366.32 330,-402.32 "/>
<text text-anchor="middle" x="347" y="-380.62" font-family="Inter,Helvetica,Arial" font-size="14.00">P−</text>
</g>
<!-- BAT&#45;&gt;BMS -->
<g id="edge1" class="edge">
<title>BAT&#45;&gt;BMS</title>
<path fill="none" stroke="black" d="M1343.34,-494.33C1285.75,-493.4 1202.08,-491.78 1129,-489.32 927.12,-482.52 875.77,-490.55 675,-468.32 596.06,-459.58 566.27,-479.55 499,-437.32 487.4,-430.04 492.8,-419.26 481,-412.32 449.17,-393.6 410.84,-384.46 374.27,-380.51"/>
<polygon fill="black" stroke="black" points="374.3,-377 364.01,-379.54 373.63,-383.97 374.3,-377"/>
<text text-anchor="middle" x="893" y="-492.12" font-family="Times,serif" font-size="14.00">+ → B+ / − → B−</text>
</g>
<!-- CHG -->
<g id="node7" class="node">
<title>CHG</title>
<polygon fill="none" stroke="black" points="747,-422.32 747,-458.32 1039,-458.32 1039,-422.32 747,-422.32"/>
<text text-anchor="middle" x="805" y="-436.62" font-family="Inter,Helvetica,Arial" font-size="14.00">TP5100 Charger</text>
<polyline fill="none" stroke="black" points="863,-422.32 863,-458.32 "/>
<text text-anchor="middle" x="882" y="-436.62" font-family="Inter,Helvetica,Arial" font-size="14.00">IN+</text>
<polyline fill="none" stroke="black" points="901,-422.32 901,-458.32 "/>
<text text-anchor="middle" x="920" y="-436.62" font-family="Inter,Helvetica,Arial" font-size="14.00">IN−</text>
<polyline fill="none" stroke="black" points="939,-422.32 939,-458.32 "/>
<text text-anchor="middle" x="964" y="-436.62" font-family="Inter,Helvetica,Arial" font-size="14.00">BAT+</text>
<polyline fill="none" stroke="black" points="989,-422.32 989,-458.32 "/>
<text text-anchor="middle" x="1014" y="-436.62" font-family="Inter,Helvetica,Arial" font-size="14.00">BAT−</text>
</g>
<!-- BMS&#45;&gt;CHG -->
<g id="edge2" class="edge">
<title>BMS&#45;&gt;CHG</title>
<path fill="none" stroke="black" d="M364.24,-394.88C469.76,-403.97 622.51,-417.12 736.56,-426.94"/>
<polygon fill="black" stroke="black" points="736.51,-430.45 746.78,-427.82 737.11,-423.47 736.51,-430.45"/>
<text text-anchor="middle" x="578" y="-422.12" font-family="Times,serif" font-size="14.00">P+ / P− ↔ IN+ / IN−</text>
</g>
<!-- BUCK -->
<g id="node8" class="node">
<title>BUCK</title>
<polygon fill="none" stroke="black" points="675,-253.32 675,-289.32 1111,-289.32 1111,-253.32 675,-253.32"/>
<text text-anchor="middle" x="773.5" y="-267.62" font-family="Inter,Helvetica,Arial" font-size="14.00">MP1584EN/LM2596 5 V Buck</text>
<polyline fill="none" stroke="black" points="872,-253.32 872,-289.32 "/>
<text text-anchor="middle" x="891" y="-267.62" font-family="Inter,Helvetica,Arial" font-size="14.00">IN+</text>
<polyline fill="none" stroke="black" points="910,-253.32 910,-289.32 "/>
<text text-anchor="middle" x="929" y="-267.62" font-family="Inter,Helvetica,Arial" font-size="14.00">IN−</text>
<polyline fill="none" stroke="black" points="948,-253.32 948,-289.32 "/>
<text text-anchor="middle" x="985" y="-267.62" font-family="Inter,Helvetica,Arial" font-size="14.00">OUT+ 5V</text>
<polyline fill="none" stroke="black" points="1022,-253.32 1022,-289.32 "/>
<text text-anchor="middle" x="1066.5" y="-267.62" font-family="Inter,Helvetica,Arial" font-size="14.00">OUT− GND</text>
</g>
<!-- BMS&#45;&gt;BUCK -->
<g id="edge3" class="edge">
<title>BMS&#45;&gt;BUCK</title>
<path fill="none" stroke="black" d="M345.29,-366.29C463.48,-345.76 655.96,-312.32 778.17,-291.09"/>
<polygon fill="black" stroke="black" points="779.05,-294.49 788.31,-289.33 777.86,-287.59 779.05,-294.49"/>
<text text-anchor="middle" x="578" y="-341.12" font-family="Times,serif" font-size="14.00">P+ → IN+ / P− → IN−</text>
</g>
<!-- BMS&#45;&gt;GND -->
<g id="edge19" class="edge">
<title>BMS&#45;&gt;GND</title>
<path fill="none" stroke="black" d="M257.83,-366.17C326.77,-291.69 603.7,-13.32 892,-13.32 892,-13.32 892,-13.32 3411,-13.32 3522.62,-13.32 3570.91,28.59 3661,-37.32 3718.75,-79.57 3735.94,-171.11 3740.75,-210.12"/>
<polygon fill="black" stroke="black" points="3737.31,-210.86 3741.88,-220.42 3744.27,-210.1 3737.31,-210.86"/>
</g>
<!-- CHG&#45;&gt;BAT -->
<g id="edge4" class="edge">
<title>CHG&#45;&gt;BAT</title>
<path fill="none" stroke="black" d="M1039,-455.01C1096.6,-460.92 1163.44,-467.84 1224,-474.32 1259.79,-478.15 1299.37,-482.51 1333.06,-486.27"/>
<polygon fill="black" stroke="black" points="1332.99,-489.78 1343.32,-487.41 1333.77,-482.82 1332.99,-489.78"/>
<text text-anchor="middle" x="1176.5" y="-478.12" font-family="Times,serif" font-size="14.00">BAT+ / BAT−</text>
</g>
<!-- CHG&#45;&gt;GND -->
<g id="edge20" class="edge">
<title>CHG&#45;&gt;GND</title>
<path fill="none" stroke="black" d="M1039.27,-440.32C1143.45,-440.32 1287.12,-440.32 1413.5,-440.32 1413.5,-440.32 1413.5,-440.32 3411,-440.32 3522.43,-440.32 3570.54,-486.39 3661,-421.32 3719.87,-378.98 3736.48,-285.52 3740.94,-246.25"/>
<polygon fill="black" stroke="black" points="3744.46,-246.22 3741.97,-235.92 3737.5,-245.53 3744.46,-246.22"/>
</g>
<!-- BUCK&#45;&gt;LCD -->
<g id="edge7" class="edge">
<title>BUCK&#45;&gt;LCD</title>
<path fill="none" stroke="black" d="M1111.16,-284.54C1479.82,-306.62 2251.76,-351.22 2905,-378.32 3001.63,-382.33 3108.73,-385.67 3199.26,-388.17"/>
<polygon fill="black" stroke="black" points="3199.28,-391.68 3209.37,-388.45 3199.47,-384.68 3199.28,-391.68"/>
<text text-anchor="middle" x="1661.5" y="-322.12" font-family="Times,serif" font-size="14.00">5V → VCC</text>
</g>
<!-- REG33 -->
<g id="node9" class="node">
<title>REG33</title>
<polygon fill="none" stroke="black" points="1242,-224.32 1242,-260.32 1587,-260.32 1587,-224.32 1242,-224.32"/>
<text text-anchor="middle" x="1327.5" y="-238.62" font-family="Inter,Helvetica,Arial" font-size="14.00">3.3 V Reg (AMS1117‑3.3)</text>
<polyline fill="none" stroke="black" points="1413,-224.32 1413,-260.32 "/>
<text text-anchor="middle" x="1438" y="-238.62" font-family="Inter,Helvetica,Arial" font-size="14.00">IN 5V</text>
<polyline fill="none" stroke="black" points="1463,-224.32 1463,-260.32 "/>
<text text-anchor="middle" x="1486.5" y="-238.62" font-family="Inter,Helvetica,Arial" font-size="14.00">GND</text>
<polyline fill="none" stroke="black" points="1510,-224.32 1510,-260.32 "/>
<text text-anchor="middle" x="1548.5" y="-238.62" font-family="Inter,Helvetica,Arial" font-size="14.00">OUT 3.3V</text>
</g>
<!-- BUCK&#45;&gt;REG33 -->
<g id="edge5" class="edge">
<title>BUCK&#45;&gt;REG33</title>
<path fill="none" stroke="black" d="M1111.3,-259.19C1151.25,-256.96 1192.57,-254.65 1231.35,-252.49"/>
<polygon fill="black" stroke="black" points="1231.89,-255.96 1241.68,-251.91 1231.5,-248.97 1231.89,-255.96"/>
<text text-anchor="middle" x="1176.5" y="-261.12" font-family="Times,serif" font-size="14.00">5V → IN</text>
</g>
<!-- BUCK&#45;&gt;GND -->
<g id="edge17" class="edge">
<title>BUCK&#45;&gt;GND</title>
<path fill="none" stroke="black" d="M917.36,-253.32C987.93,-200.77 1206.84,-51.32 1413.5,-51.32 1413.5,-51.32 1413.5,-51.32 3411,-51.32 3522.91,-51.32 3568.14,-18.87 3661,-81.32 3707.15,-112.35 3729.76,-178.66 3738.3,-210.51"/>
<polygon fill="black" stroke="black" points="3734.99,-211.72 3740.82,-220.56 3741.78,-210.01 3734.99,-211.72"/>
</g>
<!-- REG33&#45;&gt;ESP -->
<g id="edge6" class="edge">
<title>REG33&#45;&gt;ESP</title>
<path fill="none" stroke="black" d="M1587.01,-242.32C1628.79,-242.32 1675.85,-242.32 1725.4,-242.32"/>
<polygon fill="black" stroke="black" points="1725.67,-245.82 1735.67,-242.32 1725.67,-238.82 1725.67,-245.82"/>
<text text-anchor="middle" x="1661.5" y="-246.12" font-family="Times,serif" font-size="14.00">3.3V → 3V3/VIN</text>
</g>
<!-- REG33&#45;&gt;GND -->
<g id="edge18" class="edge">
<title>REG33&#45;&gt;GND</title>
<path fill="none" stroke="black" d="M1587.23,-227.73C1635.36,-223.67 1687.72,-219.29 1736,-215.32 2368.09,-163.28 2524.98,-124.53 3159,-108.32 3270.52,-105.47 3562.42,-56.1 3661,-108.32 3702.46,-130.28 3726.73,-183.81 3736.88,-211.35"/>
<polygon fill="black" stroke="black" points="3733.58,-212.52 3740.18,-220.8 3740.19,-210.21 3733.58,-212.52"/>
</g>
<!-- DIV&#45;&gt;GND -->
<g id="edge21" class="edge">
<title>DIV&#45;&gt;GND</title>
<path fill="none" stroke="black" d="M3579.66,-228.32C3618.72,-228.32 3657.57,-228.32 3687.52,-228.32"/>
<polygon fill="black" stroke="black" points="3687.72,-231.82 3697.72,-228.32 3687.72,-224.82 3687.72,-231.82"/>
</g>
<!-- NOTE1 -->
<g id="node13" class="node">
<title>NOTE1</title>
<polygon fill="none" stroke="black" points="475,-457.32 0,-457.32 0,-421.32 481,-421.32 481,-451.32 475,-457.32"/>
<polyline fill="none" stroke="black" points="475,-457.32 475,-451.32 "/>
<polyline fill="none" stroke="black" points="481,-451.32 475,-451.32 "/>
<text text-anchor="middle" x="240.5" y="-435.62" font-family="Inter,Helvetica,Arial" font-size="14.00">Level shifting: ST7920 is 5V; series resistors or shifter for 3.3V ESP32 signals</text>
</g>
</g>
</svg>
